<?xml version="1.0" encoding="iso-8859-1"?>
<!-- Generator: Adobe Illustrator 19.0.0, SVG Export Plug-In . SVG Version: 6.00 Build 0)  -->
<svg version="1.1" id="Layer_1" xmlns="http://www.w3.org/2000/svg" xmlns:xlink="http://www.w3.org/1999/xlink" x="0px" y="0px"
	 viewBox="0 0 512 512" style="enable-background:new 0 0 512 512;" xml:space="preserve">
<path style="fill:#F1F4FB;" d="M494.345,397.241H17.655C7.904,397.241,0,389.337,0,379.586V132.414
	c0-9.751,7.904-17.655,17.655-17.655h476.69c9.751,0,17.655,7.904,17.655,17.655v247.172
	C512,389.337,504.096,397.241,494.345,397.241z"/>
<path style="fill:#9BF57D;" d="M97.103,223.075v-36.728c10.489,2.207,17.655,8.015,17.655,13.377c0,4.879,3.948,8.828,8.828,8.828
	c4.879,0,8.828-3.948,8.828-8.828c0-15.741-14.932-28.483-35.31-31.373v-9.454c0-4.879-3.948-8.828-8.828-8.828
	c-4.879,0-8.828,3.948-8.828,8.828v9.454c-20.378,2.891-35.31,15.633-35.31,31.373c0,22.251,19.388,30.948,35.31,36.235v36.727
	c-10.49-2.207-17.655-8.015-17.655-13.376c0-4.879-3.948-8.828-8.828-8.828s-8.828,3.948-8.828,8.828
	c0,15.741,14.932,28.483,35.31,31.373v9.454c0,4.879,3.948,8.828,8.828,8.828c4.879,0,8.828-3.948,8.828-8.828v-9.454
	c20.378-2.891,35.31-15.633,35.31-31.373C132.414,237.059,113.026,228.362,97.103,223.075z M61.793,199.724
	c0-5.361,7.165-11.169,17.655-13.376v30.751C66.297,211.951,61.793,207.245,61.793,199.724z M97.103,272.687v-30.752
	c13.151,5.148,17.655,9.854,17.655,17.375C114.759,264.672,107.593,270.479,97.103,272.687z"/>
<g>
	<path style="fill:#AFB9D2;" d="M308.966,176.552H167.724c-4.879,0-8.828-3.948-8.828-8.828s3.948-8.828,8.828-8.828h141.241
		c4.879,0,8.828,3.948,8.828,8.828S313.845,176.552,308.966,176.552z"/>
	<path style="fill:#AFB9D2;" d="M467.862,176.552h-17.655c-4.879,0-8.828-3.948-8.828-8.828s3.948-8.828,8.828-8.828h17.655
		c4.879,0,8.828,3.948,8.828,8.828S472.742,176.552,467.862,176.552z"/>
</g>
<path style="fill:#C7CFE2;" d="M414.897,176.552h-17.655c-4.879,0-8.828-3.948-8.828-8.828s3.948-8.828,8.828-8.828h17.655
	c4.879,0,8.828,3.948,8.828,8.828S419.776,176.552,414.897,176.552z"/>
<path style="fill:#D5DCED;" d="M256,247.172h-88.276c-4.879,0-8.828-3.948-8.828-8.828c0-4.879,3.948-8.828,8.828-8.828H256
	c4.879,0,8.828,3.948,8.828,8.828C264.828,243.224,260.879,247.172,256,247.172z"/>
<path style="fill:#AFB9D2;" d="M326.621,211.862H167.724c-4.879,0-8.828-3.948-8.828-8.828s3.948-8.828,8.828-8.828h158.897
	c4.879,0,8.828,3.948,8.828,8.828S331.5,211.862,326.621,211.862z"/>
<path style="fill:#C7CFE2;" d="M467.862,247.172h-88.276c-4.879,0-8.828-3.948-8.828-8.828c0-4.879,3.948-8.828,8.828-8.828h88.276
	c4.879,0,8.828,3.948,8.828,8.828C476.69,243.224,472.742,247.172,467.862,247.172z"/>
<path style="fill:#AFB9D2;" d="M467.862,211.862h-35.31c-4.879,0-8.828-3.948-8.828-8.828s3.948-8.828,8.828-8.828h35.31
	c4.879,0,8.828,3.948,8.828,8.828S472.742,211.862,467.862,211.862z"/>
<path style="fill:#C7CFE2;" d="M88.276,361.931h-35.31c-4.879,0-8.828-3.948-8.828-8.828c0-4.879,3.948-8.828,8.828-8.828h35.31
	c4.879,0,8.828,3.948,8.828,8.828C97.103,357.983,93.155,361.931,88.276,361.931z"/>
<path style="fill:#D5DCED;" d="M300.138,361.931h-70.621c-4.879,0-8.828-3.948-8.828-8.828c0-4.879,3.948-8.828,8.828-8.828h70.621
	c4.879,0,8.828,3.948,8.828,8.828C308.966,357.983,305.017,361.931,300.138,361.931z"/>
<g>
	<path style="fill:#AFB9D2;" d="M141.241,361.931h-17.655c-4.879,0-8.828-3.948-8.828-8.828c0-4.879,3.948-8.828,8.828-8.828h17.655
		c4.879,0,8.828,3.948,8.828,8.828C150.069,357.983,146.121,361.931,141.241,361.931z"/>
	<path style="fill:#AFB9D2;" d="M194.207,361.931h-17.655c-4.879,0-8.828-3.948-8.828-8.828c0-4.879,3.948-8.828,8.828-8.828h17.655
		c4.879,0,8.828,3.948,8.828,8.828C203.034,357.983,199.086,361.931,194.207,361.931z"/>
</g>
<path style="fill:#5B5D6E;" d="M353.103,361.931c-1.138,0-2.284-0.215-3.38-0.672c-3.302-1.363-5.448-4.587-5.448-8.156v-52.966
	c0-4.879,3.948-8.828,8.828-8.828c4.879,0,8.828,3.948,8.828,8.828v31.656l20.242-20.242c3.448-3.448,9.035-3.448,12.483,0
	l20.785,20.785l46.767-38.983c3.767-3.112,9.311-2.612,12.439,1.129c3.121,3.75,2.612,9.319-1.129,12.439l-52.966,44.138
	c-3.509,2.931-8.664,2.69-11.896-0.543l-20.243-20.241l-29.069,29.069C357.655,361.035,355.396,361.931,353.103,361.931z"/>
<g>
</g>
<g>
</g>
<g>
</g>
<g>
</g>
<g>
</g>
<g>
</g>
<g>
</g>
<g>
</g>
<g>
</g>
<g>
</g>
<g>
</g>
<g>
</g>
<g>
</g>
<g>
</g>
<g>
</g>
</svg>
